<svg width="383" height="83" viewBox="0 0 383 83" fill="none" xmlns="http://www.w3.org/2000/svg">
<path d="M16.536 32.136C13.52 34.268 12.012 37.44 12.012 41.652C12.012 44.304 12.948 46.8 14.82 49.14C16.744 51.48 19.968 52.65 24.492 52.65C29.016 52.65 33.306 51.116 37.362 48.048C41.418 44.98 44.486 41.626 46.566 37.986L49.218 42.744C42.51 54.132 33.176 59.826 21.216 59.826C15.288 59.826 10.27 58.24 6.162 55.068C2.054 51.844 0 48.074 0 43.758C0 36.218 3.354 30.758 10.062 27.378C7.826 24.622 6.708 21.398 6.708 17.706C6.708 12.87 8.788 8.71 12.948 5.226C17.16 1.742 22.022 0 27.534 0C33.046 0 37.284 1.404 40.248 4.212C43.264 7.02 44.772 10.712 44.772 15.288H37.362C37.414 12.48 36.66 10.374 35.1 8.97C33.592 7.514 31.46 6.786 28.704 6.786C26 6.786 23.556 7.774 21.372 9.75C18.928 11.882 17.706 14.378 17.706 17.238C17.706 20.098 18.486 22.568 20.046 24.648C25.246 24.024 29.198 24.362 31.902 25.662C33.566 26.442 34.398 27.69 34.398 29.406C34.398 31.07 33.436 32.24 31.512 32.916C29.64 33.592 27.378 33.93 24.726 33.93C22.074 33.93 19.344 33.332 16.536 32.136Z" fill="#647EFF"/>
<path d="M39.1127 26.832H68.9087L68.2067 33.54H38.4107L39.1127 26.832Z" fill="#647EFF"/>
<path d="M97.3013 59.826C89.2413 59.826 83.3133 57.772 79.5173 53.664C75.7733 49.556 73.9013 44.148 73.9013 37.44C73.9013 30.68 75.0453 24.544 77.3333 19.032C79.6733 13.468 83.1313 8.918 87.7073 5.382C92.2833 1.794 97.2233 0 102.527 0C107.883 0 112.069 1.3 115.085 3.9C118.153 6.448 119.687 9.906 119.687 14.274C119.687 18.59 118.335 22.178 115.631 25.038C112.979 27.898 109.859 29.328 106.271 29.328C102.683 29.328 99.9013 28.548 97.9253 26.988C95.9493 25.376 94.9613 23.686 94.9613 21.918C94.9613 20.098 95.6633 18.694 97.0673 17.706C98.5233 16.666 100.629 16.146 103.385 16.146C102.709 16.822 102.371 17.732 102.371 18.876C102.371 19.968 102.709 20.93 103.385 21.762C104.061 22.594 105.101 23.01 106.505 23.01C107.909 23.01 109.313 22.282 110.717 20.826C112.121 19.318 112.823 17.342 112.823 14.898C112.823 12.454 112.069 10.504 110.561 9.048C109.105 7.592 107.025 6.864 104.321 6.864C100.785 6.864 97.5613 8.294 94.6493 11.154C91.7893 14.014 89.6053 17.654 88.0973 22.074C86.5893 26.494 85.8353 31.148 85.8353 36.036C85.8353 40.248 86.7453 43.966 88.5653 47.19C89.5013 48.854 90.8793 50.18 92.6993 51.168C94.5713 52.156 96.7553 52.65 99.2513 52.65C103.515 52.65 107.623 51.298 111.575 48.594C115.527 45.838 118.855 42.302 121.559 37.986L124.211 42.744C121.143 47.736 117.295 51.844 112.667 55.068C108.039 58.24 102.917 59.826 97.3013 59.826Z" fill="#647EFF"/>
<path d="M139.437 21.84C144.221 21.84 148.199 23.374 151.371 26.442C154.595 29.51 156.207 33.254 156.207 37.674C156.207 44.382 154.231 49.764 150.279 53.82C146.379 57.824 141.647 59.826 136.083 59.826C130.519 59.826 126.099 58.24 122.823 55.068C119.599 51.896 117.987 47.97 117.987 43.29C117.987 36.738 119.989 31.538 123.993 27.69C128.049 23.79 133.197 21.84 139.437 21.84ZM137.877 28.158C135.433 28.158 133.379 29.562 131.715 32.37C130.051 35.178 129.141 38.714 128.985 42.978C128.985 45.994 129.583 48.49 130.779 50.466C132.027 52.442 133.899 53.43 136.395 53.43C138.891 53.43 140.971 52.052 142.635 49.296C144.351 46.54 145.209 43.394 145.209 39.858C145.209 36.322 144.611 33.514 143.415 31.434C142.219 29.25 140.373 28.158 137.877 28.158Z" fill="#647EFF"/>
<path d="M194.234 59.748C189.45 59.748 186.278 58.084 184.718 54.756C182.014 58.136 178.53 59.826 174.266 59.826C170.054 59.826 166.492 58.396 163.58 55.536C160.72 52.676 159.29 48.906 159.29 44.226C159.29 37.414 161.292 31.98 165.296 27.924C169.3 23.868 174.37 21.84 180.506 21.84C180.662 21.84 180.818 21.84 180.974 21.84C183.574 21.84 185.966 22.282 188.15 23.166C189.554 22.282 191.244 21.84 193.22 21.84C195.248 21.84 196.704 22.1 197.588 22.62C197.12 26.468 196.626 30.264 196.106 34.008C195.586 37.7 195.222 40.326 195.014 41.886C194.546 45.422 194.312 47.97 194.312 49.53C194.312 51.61 195.144 52.65 196.808 52.65C198.108 52.65 199.486 51.792 200.942 50.076C202.398 48.308 203.672 45.552 204.764 41.808C206.272 43.16 207.312 44.668 207.884 46.332C206.376 51.272 204.348 54.756 201.8 56.784C199.252 58.76 196.73 59.748 194.234 59.748ZM181.676 27.924C178.348 27.924 175.696 29.198 173.72 31.746C171.796 34.242 170.652 37.986 170.288 42.978C170.236 43.446 170.21 43.888 170.21 44.304C170.21 46.852 170.808 48.88 172.004 50.388C173.252 51.896 174.838 52.65 176.762 52.65C180.038 52.65 182.508 50.336 184.172 45.708L186.044 28.86C184.536 28.236 183.08 27.924 181.676 27.924Z" fill="#647EFF"/>
<path d="M226.67 32.916C226.67 29.536 225.162 27.846 222.146 27.846C219.91 27.846 217.908 29.12 216.14 31.668C214.268 34.424 213.332 37.648 213.332 41.34C213.332 45.032 214.138 47.892 215.75 49.92C217.414 51.896 219.676 52.884 222.536 52.884C225.968 52.884 229.582 51.48 233.378 48.672C237.226 45.864 240.32 42.38 242.66 38.22C243.7 39 244.714 40.43 245.702 42.51C244.194 45.526 241.386 48.906 237.278 52.65C235.146 54.626 232.494 56.29 229.322 57.642C225.89 59.098 222.458 59.826 219.026 59.826C214.398 59.826 210.472 58.24 207.248 55.068C204.076 51.896 202.49 47.762 202.49 42.666C202.49 36.478 204.57 31.46 208.73 27.612C212.89 23.764 217.544 21.84 222.692 21.84C226.696 21.84 229.868 22.672 232.208 24.336C234.548 26 235.718 28.184 235.718 30.888C235.718 32.656 235.094 34.19 233.846 35.49C231.558 37.778 228.776 38.922 225.5 38.922C226.28 36.322 226.67 34.32 226.67 32.916Z" fill="#647EFF"/>
<path d="M260.113 50.466L261.985 33.228C261.985 31.824 261.621 30.654 260.893 29.718C260.165 28.782 258.995 28.314 257.383 28.314C255.771 28.314 254.393 28.964 253.249 30.264C252.157 31.512 251.351 33.176 250.831 35.256C250.467 38.22 249.921 42.562 249.193 48.282C248.465 53.95 247.997 57.642 247.789 59.358H237.415C241.159 27.482 243.421 7.904 244.201 0.624002C245.293 0.208002 246.775 0 248.647 0C252.703 0 254.731 1.196 254.731 3.588V4.056C253.847 12.22 252.911 19.396 251.923 25.584C254.679 23.088 257.799 21.84 261.283 21.84C264.767 21.84 267.523 22.724 269.551 24.492C271.579 26.26 272.593 28.496 272.593 31.2C272.593 31.928 272.437 33.28 272.125 35.256C270.929 43.056 270.331 47.632 270.331 48.984C270.331 51.428 271.137 52.65 272.749 52.65C274.101 52.65 275.531 51.766 277.039 49.998C278.599 48.178 279.847 45.396 280.783 41.652C282.551 43.524 283.617 45.006 283.981 46.098C281.277 55.146 276.493 59.67 269.629 59.67C266.405 59.67 264.013 58.682 262.453 56.706C260.893 54.73 260.113 52.65 260.113 50.466Z" fill="#647EFF"/>
<path d="M283.518 1.95C284.714 0.701999 286.17 0.0779991 287.886 0.0779991C289.602 0.0779991 291.058 0.701999 292.254 1.95C293.502 3.146 294.126 4.602 294.126 6.318C294.126 8.034 293.502 9.49 292.254 10.686C291.058 11.882 289.602 12.48 287.886 12.48C286.17 12.48 284.714 11.882 283.518 10.686C282.322 9.49 281.724 8.034 281.724 6.318C281.724 4.602 282.322 3.146 283.518 1.95ZM280.32 24.804C280.84 23.868 281.828 23.166 283.284 22.698C284.74 22.178 286.17 21.918 287.574 21.918C289.03 21.918 290.304 22.1 291.396 22.464C289.368 38.116 288.354 46.02 288.354 46.176C288.094 47.216 287.964 48.1 287.964 48.828C287.964 49.504 288.016 50.102 288.12 50.622C288.328 51.974 289.264 52.65 290.928 52.65C292.644 52.65 294.204 51.558 295.608 49.374C297.064 47.138 298.156 44.616 298.884 41.808C299.248 42.016 299.82 42.64 300.6 43.68C301.38 44.72 301.848 45.5 302.004 46.02C300.964 50.18 299.196 53.534 296.7 56.082C294.204 58.63 291.214 59.904 287.73 59.904C284.246 59.904 281.646 59.046 279.93 57.33C278.266 55.614 277.434 53.404 277.434 50.7C277.434 50.128 277.46 49.53 277.512 48.906L280.32 24.804Z" fill="#647EFF"/>
<path d="M317.873 50.622L319.745 33.228C319.745 31.824 319.381 30.654 318.653 29.718C317.925 28.782 316.703 28.314 314.987 28.314C313.323 28.314 311.893 29.068 310.697 30.576C309.553 32.032 308.825 33.878 308.513 36.114C306.641 50.362 305.653 58.11 305.549 59.358H295.019L299.309 22.62C301.493 22.048 303.157 21.762 304.301 21.762C307.785 21.762 309.605 23.036 309.761 25.584C312.309 23.088 315.351 21.84 318.887 21.84C322.475 21.84 325.283 22.724 327.311 24.492C329.339 26.26 330.353 28.496 330.353 31.2C330.353 31.928 330.197 33.306 329.885 35.334C328.689 43.238 328.091 47.84 328.091 49.14C328.091 51.532 328.897 52.728 330.509 52.728C334.045 52.728 336.723 49.036 338.543 41.652C340.311 43.524 341.377 45.006 341.741 46.098C338.985 55.25 334.201 59.826 327.389 59.826C324.165 59.826 321.773 58.838 320.213 56.862C318.653 54.886 317.873 52.806 317.873 50.622Z" fill="#647EFF"/>
<path d="M357.072 21.84C359.932 21.84 362.558 22.308 364.95 23.244C366.562 22.256 368.252 21.762 370.02 21.762C371.788 21.762 373.192 21.996 374.232 22.464L371.424 44.46C375.272 41.496 378.184 38.792 380.16 36.348L382.422 41.106C379.458 44.226 375.506 47.554 370.566 51.09L368.46 67.392C367.888 72.28 366.276 76.024 363.624 78.624C361.024 81.276 357.644 82.602 353.484 82.602C351.092 82.602 348.752 81.822 346.464 80.262C344.072 78.598 342.876 75.92 342.876 72.228C342.876 67.704 345.034 63.57 349.35 59.826C345.658 59.566 342.486 58.032 339.834 55.224C337.182 52.416 335.856 48.75 335.856 44.226C335.856 37.414 337.858 31.98 341.862 27.924C345.866 23.868 350.936 21.84 357.072 21.84ZM358.242 27.924C354.914 27.924 352.262 29.198 350.286 31.746C348.362 34.242 347.218 37.986 346.854 42.978C346.802 43.446 346.776 43.888 346.776 44.304C346.776 46.852 347.374 48.88 348.57 50.388C349.818 51.896 351.404 52.65 353.328 52.65C356.604 52.65 359.074 50.362 360.738 45.786L362.688 28.86C361.076 28.236 359.594 27.924 358.242 27.924ZM348.882 71.058C348.882 72.462 349.272 73.554 350.052 74.334C350.884 75.166 351.82 75.582 352.86 75.582C355.772 75.582 357.462 73.736 357.93 70.044L359.256 58.344C352.34 62.452 348.882 66.69 348.882 71.058Z" fill="#647EFF"/>
</svg>
